<mxfile host="app.diagrams.net" modified="2023-04-07T13:29:02.605Z" agent="Mozilla/5.0 (Windows NT 10.0; Win64; x64) AppleWebKit/537.36 (KHTML, like Gecko) Chrome/112.0.0.0 Safari/537.36" etag="zfc4URhGiXU4Xid4viwZ" version="21.1.5" type="device">
  <diagram name="Page-1" id="gPZhBN9EBuWUIh--otmf">
    <mxGraphModel dx="1760" dy="2081" grid="1" gridSize="10" guides="1" tooltips="1" connect="1" arrows="1" fold="1" page="1" pageScale="1" pageWidth="827" pageHeight="1169" math="0" shadow="0">
      <root>
        <mxCell id="0" />
        <mxCell id="1" parent="0" />
        <mxCell id="J44joNyrXJEu9sqbxBoI-1" value="Admin&lt;br&gt;" style="shape=umlActor;verticalLabelPosition=bottom;verticalAlign=top;html=1;outlineConnect=0;" parent="1" vertex="1">
          <mxGeometry x="40" y="220" width="40" height="70" as="geometry" />
        </mxCell>
        <mxCell id="J44joNyrXJEu9sqbxBoI-2" value="User" style="shape=umlActor;verticalLabelPosition=bottom;verticalAlign=top;html=1;outlineConnect=0;" parent="1" vertex="1">
          <mxGeometry x="730" y="220" width="40" height="70" as="geometry" />
        </mxCell>
        <mxCell id="J44joNyrXJEu9sqbxBoI-3" value="" style="rounded=0;whiteSpace=wrap;html=1;" parent="1" vertex="1">
          <mxGeometry x="120" y="-250" width="560" height="1260" as="geometry" />
        </mxCell>
        <mxCell id="J44joNyrXJEu9sqbxBoI-4" value="Login" style="ellipse;whiteSpace=wrap;html=1;" parent="1" vertex="1">
          <mxGeometry x="340" y="-220" width="130" height="50" as="geometry" />
        </mxCell>
        <mxCell id="J44joNyrXJEu9sqbxBoI-13" value="" style="endArrow=classic;html=1;rounded=0;entryX=0;entryY=0.5;entryDx=0;entryDy=0;" parent="1" target="J44joNyrXJEu9sqbxBoI-4" edge="1">
          <mxGeometry width="50" height="50" relative="1" as="geometry">
            <mxPoint x="60" y="260" as="sourcePoint" />
            <mxPoint x="110" y="210" as="targetPoint" />
          </mxGeometry>
        </mxCell>
        <mxCell id="J44joNyrXJEu9sqbxBoI-14" value="" style="endArrow=classic;html=1;rounded=0;entryX=1;entryY=0.5;entryDx=0;entryDy=0;exitX=0.5;exitY=0.5;exitDx=0;exitDy=0;exitPerimeter=0;" parent="1" source="J44joNyrXJEu9sqbxBoI-2" target="J44joNyrXJEu9sqbxBoI-4" edge="1">
          <mxGeometry width="50" height="50" relative="1" as="geometry">
            <mxPoint x="166" y="255" as="sourcePoint" />
            <mxPoint x="460" y="-200" as="targetPoint" />
          </mxGeometry>
        </mxCell>
        <mxCell id="J44joNyrXJEu9sqbxBoI-16" value="" style="endArrow=classic;html=1;rounded=0;entryX=1;entryY=0.5;entryDx=0;entryDy=0;exitX=0.5;exitY=0.5;exitDx=0;exitDy=0;exitPerimeter=0;" parent="1" target="J44joNyrXJEu9sqbxBoI-18" edge="1">
          <mxGeometry width="50" height="50" relative="1" as="geometry">
            <mxPoint x="760" y="265" as="sourcePoint" />
            <mxPoint x="479.99999999999727" y="-135" as="targetPoint" />
          </mxGeometry>
        </mxCell>
        <mxCell id="J44joNyrXJEu9sqbxBoI-18" value="Registration" style="ellipse;whiteSpace=wrap;html=1;" parent="1" vertex="1">
          <mxGeometry x="342" y="-160" width="130" height="50" as="geometry" />
        </mxCell>
        <mxCell id="J44joNyrXJEu9sqbxBoI-19" value="Update Porfile" style="ellipse;whiteSpace=wrap;html=1;" parent="1" vertex="1">
          <mxGeometry x="342" y="-100" width="130" height="50" as="geometry" />
        </mxCell>
        <mxCell id="J44joNyrXJEu9sqbxBoI-20" value="" style="endArrow=classic;html=1;rounded=0;entryX=0;entryY=0.5;entryDx=0;entryDy=0;exitX=0.5;exitY=0.5;exitDx=0;exitDy=0;exitPerimeter=0;" parent="1" source="J44joNyrXJEu9sqbxBoI-1" target="J44joNyrXJEu9sqbxBoI-19" edge="1">
          <mxGeometry width="50" height="50" relative="1" as="geometry">
            <mxPoint x="70" y="270" as="sourcePoint" />
            <mxPoint x="350" y="-185" as="targetPoint" />
          </mxGeometry>
        </mxCell>
        <mxCell id="J44joNyrXJEu9sqbxBoI-21" value="" style="endArrow=classic;html=1;rounded=0;entryX=1;entryY=0.5;entryDx=0;entryDy=0;exitX=0.5;exitY=0.5;exitDx=0;exitDy=0;exitPerimeter=0;" parent="1" source="J44joNyrXJEu9sqbxBoI-2" target="J44joNyrXJEu9sqbxBoI-19" edge="1">
          <mxGeometry width="50" height="50" relative="1" as="geometry">
            <mxPoint x="760" y="265" as="sourcePoint" />
            <mxPoint x="480" y="-185" as="targetPoint" />
          </mxGeometry>
        </mxCell>
        <mxCell id="J44joNyrXJEu9sqbxBoI-22" value="Generate Report" style="ellipse;whiteSpace=wrap;html=1;" parent="1" vertex="1">
          <mxGeometry x="342" y="-40" width="130" height="50" as="geometry" />
        </mxCell>
        <mxCell id="J44joNyrXJEu9sqbxBoI-23" value="" style="endArrow=classic;html=1;rounded=0;entryX=0;entryY=0.5;entryDx=0;entryDy=0;exitX=0.5;exitY=0.5;exitDx=0;exitDy=0;exitPerimeter=0;" parent="1" source="J44joNyrXJEu9sqbxBoI-1" target="J44joNyrXJEu9sqbxBoI-22" edge="1">
          <mxGeometry width="50" height="50" relative="1" as="geometry">
            <mxPoint x="60" y="260" as="sourcePoint" />
            <mxPoint x="352" y="-65" as="targetPoint" />
          </mxGeometry>
        </mxCell>
        <mxCell id="J44joNyrXJEu9sqbxBoI-25" value="" style="endArrow=classic;html=1;rounded=0;entryX=0;entryY=0.5;entryDx=0;entryDy=0;" parent="1" source="J44joNyrXJEu9sqbxBoI-1" edge="1">
          <mxGeometry width="50" height="50" relative="1" as="geometry">
            <mxPoint x="60" y="255" as="sourcePoint" />
            <mxPoint x="340" y="45" as="targetPoint" />
          </mxGeometry>
        </mxCell>
        <mxCell id="J44joNyrXJEu9sqbxBoI-27" value="" style="endArrow=classic;html=1;rounded=0;entryX=0;entryY=0.5;entryDx=0;entryDy=0;exitX=0.5;exitY=0.5;exitDx=0;exitDy=0;exitPerimeter=0;" parent="1" source="J44joNyrXJEu9sqbxBoI-1" edge="1">
          <mxGeometry width="50" height="50" relative="1" as="geometry">
            <mxPoint x="90" y="250" as="sourcePoint" />
            <mxPoint x="335" y="105" as="targetPoint" />
          </mxGeometry>
        </mxCell>
        <mxCell id="J44joNyrXJEu9sqbxBoI-28" value="Add Product&lt;br&gt;to cart" style="ellipse;whiteSpace=wrap;html=1;" parent="1" vertex="1">
          <mxGeometry x="340" y="140" width="130" height="50" as="geometry" />
        </mxCell>
        <mxCell id="J44joNyrXJEu9sqbxBoI-30" value="" style="endArrow=classic;html=1;rounded=0;entryX=1;entryY=0.5;entryDx=0;entryDy=0;" parent="1" target="J44joNyrXJEu9sqbxBoI-28" edge="1">
          <mxGeometry width="50" height="50" relative="1" as="geometry">
            <mxPoint x="750" y="255" as="sourcePoint" />
            <mxPoint x="482" y="-65" as="targetPoint" />
          </mxGeometry>
        </mxCell>
        <mxCell id="J44joNyrXJEu9sqbxBoI-33" value="" style="endArrow=classic;html=1;rounded=0;entryX=1;entryY=0.5;entryDx=0;entryDy=0;exitX=0.5;exitY=0.5;exitDx=0;exitDy=0;exitPerimeter=0;" parent="1" source="J44joNyrXJEu9sqbxBoI-2" edge="1">
          <mxGeometry width="50" height="50" relative="1" as="geometry">
            <mxPoint x="760" y="265" as="sourcePoint" />
            <mxPoint x="470" y="225" as="targetPoint" />
          </mxGeometry>
        </mxCell>
        <mxCell id="J44joNyrXJEu9sqbxBoI-34" value="Change Password" style="ellipse;whiteSpace=wrap;html=1;" parent="1" vertex="1">
          <mxGeometry x="340" y="260" width="130" height="50" as="geometry" />
        </mxCell>
        <mxCell id="J44joNyrXJEu9sqbxBoI-35" value="" style="endArrow=classic;html=1;rounded=0;entryX=0;entryY=0.5;entryDx=0;entryDy=0;exitX=0.5;exitY=0.5;exitDx=0;exitDy=0;exitPerimeter=0;" parent="1" source="J44joNyrXJEu9sqbxBoI-1" target="J44joNyrXJEu9sqbxBoI-34" edge="1">
          <mxGeometry width="50" height="50" relative="1" as="geometry">
            <mxPoint x="70" y="265" as="sourcePoint" />
            <mxPoint x="350" y="235" as="targetPoint" />
          </mxGeometry>
        </mxCell>
        <mxCell id="J44joNyrXJEu9sqbxBoI-36" value="" style="endArrow=classic;html=1;rounded=0;entryX=1;entryY=0.5;entryDx=0;entryDy=0;exitX=0.5;exitY=0.5;exitDx=0;exitDy=0;exitPerimeter=0;" parent="1" source="J44joNyrXJEu9sqbxBoI-2" target="J44joNyrXJEu9sqbxBoI-34" edge="1">
          <mxGeometry width="50" height="50" relative="1" as="geometry">
            <mxPoint x="760" y="265" as="sourcePoint" />
            <mxPoint x="480" y="235" as="targetPoint" />
          </mxGeometry>
        </mxCell>
        <mxCell id="J44joNyrXJEu9sqbxBoI-37" value="Order" style="ellipse;whiteSpace=wrap;html=1;" parent="1" vertex="1">
          <mxGeometry x="340" y="320" width="130" height="50" as="geometry" />
        </mxCell>
        <mxCell id="J44joNyrXJEu9sqbxBoI-38" value="" style="endArrow=classic;html=1;rounded=0;entryX=0;entryY=0.5;entryDx=0;entryDy=0;exitX=0.5;exitY=0.5;exitDx=0;exitDy=0;exitPerimeter=0;" parent="1" source="J44joNyrXJEu9sqbxBoI-1" target="J44joNyrXJEu9sqbxBoI-37" edge="1">
          <mxGeometry width="50" height="50" relative="1" as="geometry">
            <mxPoint x="70" y="265" as="sourcePoint" />
            <mxPoint x="350" y="295" as="targetPoint" />
          </mxGeometry>
        </mxCell>
        <mxCell id="J44joNyrXJEu9sqbxBoI-39" value="" style="endArrow=classic;html=1;rounded=0;entryX=1;entryY=0.5;entryDx=0;entryDy=0;exitX=0.5;exitY=0.5;exitDx=0;exitDy=0;exitPerimeter=0;" parent="1" source="J44joNyrXJEu9sqbxBoI-2" target="J44joNyrXJEu9sqbxBoI-37" edge="1">
          <mxGeometry width="50" height="50" relative="1" as="geometry">
            <mxPoint x="760" y="265" as="sourcePoint" />
            <mxPoint x="480" y="295" as="targetPoint" />
          </mxGeometry>
        </mxCell>
        <mxCell id="J44joNyrXJEu9sqbxBoI-40" value="Add Product" style="ellipse;whiteSpace=wrap;html=1;" parent="1" vertex="1">
          <mxGeometry x="340" y="380" width="130" height="50" as="geometry" />
        </mxCell>
        <mxCell id="J44joNyrXJEu9sqbxBoI-42" value="" style="endArrow=classic;html=1;rounded=0;entryX=0;entryY=0.5;entryDx=0;entryDy=0;exitX=0.5;exitY=0.5;exitDx=0;exitDy=0;exitPerimeter=0;" parent="1" source="J44joNyrXJEu9sqbxBoI-1" target="J44joNyrXJEu9sqbxBoI-40" edge="1">
          <mxGeometry width="50" height="50" relative="1" as="geometry">
            <mxPoint x="70" y="265" as="sourcePoint" />
            <mxPoint x="350" y="355" as="targetPoint" />
          </mxGeometry>
        </mxCell>
        <mxCell id="J44joNyrXJEu9sqbxBoI-43" value="Filter Product" style="ellipse;whiteSpace=wrap;html=1;" parent="1" vertex="1">
          <mxGeometry x="340" y="200" width="130" height="50" as="geometry" />
        </mxCell>
        <mxCell id="J44joNyrXJEu9sqbxBoI-44" value="" style="endArrow=classic;html=1;rounded=0;entryX=1;entryY=0.5;entryDx=0;entryDy=0;exitX=0.5;exitY=0.5;exitDx=0;exitDy=0;exitPerimeter=0;" parent="1" source="J44joNyrXJEu9sqbxBoI-2" target="J44joNyrXJEu9sqbxBoI-43" edge="1">
          <mxGeometry width="50" height="50" relative="1" as="geometry">
            <mxPoint x="760" y="265" as="sourcePoint" />
            <mxPoint x="480" y="355" as="targetPoint" />
          </mxGeometry>
        </mxCell>
        <mxCell id="J44joNyrXJEu9sqbxBoI-45" value="Payment" style="ellipse;whiteSpace=wrap;html=1;" parent="1" vertex="1">
          <mxGeometry x="340" y="500" width="130" height="50" as="geometry" />
        </mxCell>
        <mxCell id="J44joNyrXJEu9sqbxBoI-46" value="" style="endArrow=classic;html=1;rounded=0;entryX=0;entryY=0.5;entryDx=0;entryDy=0;exitX=0.5;exitY=0.5;exitDx=0;exitDy=0;exitPerimeter=0;" parent="1" source="J44joNyrXJEu9sqbxBoI-1" target="J44joNyrXJEu9sqbxBoI-45" edge="1">
          <mxGeometry width="50" height="50" relative="1" as="geometry">
            <mxPoint x="70" y="265" as="sourcePoint" />
            <mxPoint x="350" y="415" as="targetPoint" />
          </mxGeometry>
        </mxCell>
        <mxCell id="J44joNyrXJEu9sqbxBoI-47" value="" style="endArrow=classic;html=1;rounded=0;entryX=1;entryY=0.5;entryDx=0;entryDy=0;exitX=0.5;exitY=0.5;exitDx=0;exitDy=0;exitPerimeter=0;" parent="1" source="J44joNyrXJEu9sqbxBoI-2" target="J44joNyrXJEu9sqbxBoI-45" edge="1">
          <mxGeometry width="50" height="50" relative="1" as="geometry">
            <mxPoint x="760" y="265" as="sourcePoint" />
            <mxPoint x="480" y="475" as="targetPoint" />
          </mxGeometry>
        </mxCell>
        <mxCell id="J44joNyrXJEu9sqbxBoI-48" value="Invoice" style="ellipse;whiteSpace=wrap;html=1;" parent="1" vertex="1">
          <mxGeometry x="335" y="559.5" width="130" height="50" as="geometry" />
        </mxCell>
        <mxCell id="J44joNyrXJEu9sqbxBoI-49" value="" style="endArrow=classic;html=1;rounded=0;entryX=0;entryY=0.5;entryDx=0;entryDy=0;exitX=0.5;exitY=0.5;exitDx=0;exitDy=0;exitPerimeter=0;" parent="1" source="J44joNyrXJEu9sqbxBoI-1" target="J44joNyrXJEu9sqbxBoI-48" edge="1">
          <mxGeometry width="50" height="50" relative="1" as="geometry">
            <mxPoint x="70" y="265" as="sourcePoint" />
            <mxPoint x="350" y="535" as="targetPoint" />
          </mxGeometry>
        </mxCell>
        <mxCell id="J44joNyrXJEu9sqbxBoI-50" value="" style="endArrow=classic;html=1;rounded=0;entryX=1;entryY=0.5;entryDx=0;entryDy=0;exitX=0.5;exitY=0.5;exitDx=0;exitDy=0;exitPerimeter=0;" parent="1" source="J44joNyrXJEu9sqbxBoI-2" target="J44joNyrXJEu9sqbxBoI-48" edge="1">
          <mxGeometry width="50" height="50" relative="1" as="geometry">
            <mxPoint x="760" y="265" as="sourcePoint" />
            <mxPoint x="480" y="535" as="targetPoint" />
          </mxGeometry>
        </mxCell>
        <mxCell id="J44joNyrXJEu9sqbxBoI-51" value="Check Order" style="ellipse;whiteSpace=wrap;html=1;" parent="1" vertex="1">
          <mxGeometry x="340" y="620" width="130" height="50" as="geometry" />
        </mxCell>
        <mxCell id="J44joNyrXJEu9sqbxBoI-52" value="" style="endArrow=classic;html=1;rounded=0;entryX=0;entryY=0.5;entryDx=0;entryDy=0;exitX=0.5;exitY=0.5;exitDx=0;exitDy=0;exitPerimeter=0;" parent="1" source="J44joNyrXJEu9sqbxBoI-1" target="J44joNyrXJEu9sqbxBoI-51" edge="1">
          <mxGeometry width="50" height="50" relative="1" as="geometry">
            <mxPoint x="70" y="265" as="sourcePoint" />
            <mxPoint x="345" y="595" as="targetPoint" />
          </mxGeometry>
        </mxCell>
        <mxCell id="J44joNyrXJEu9sqbxBoI-53" value="" style="endArrow=classic;html=1;rounded=0;entryX=1;entryY=0.5;entryDx=0;entryDy=0;exitX=0.5;exitY=0.5;exitDx=0;exitDy=0;exitPerimeter=0;" parent="1" source="J44joNyrXJEu9sqbxBoI-2" target="J44joNyrXJEu9sqbxBoI-51" edge="1">
          <mxGeometry width="50" height="50" relative="1" as="geometry">
            <mxPoint x="760" y="265" as="sourcePoint" />
            <mxPoint x="475" y="595" as="targetPoint" />
          </mxGeometry>
        </mxCell>
        <mxCell id="J44joNyrXJEu9sqbxBoI-54" value="Manage Users" style="ellipse;whiteSpace=wrap;html=1;" parent="1" vertex="1">
          <mxGeometry x="342" y="680" width="130" height="50" as="geometry" />
        </mxCell>
        <mxCell id="J44joNyrXJEu9sqbxBoI-55" value="" style="endArrow=classic;html=1;rounded=0;entryX=0;entryY=0.5;entryDx=0;entryDy=0;exitX=0.5;exitY=0.5;exitDx=0;exitDy=0;exitPerimeter=0;" parent="1" source="J44joNyrXJEu9sqbxBoI-1" target="J44joNyrXJEu9sqbxBoI-54" edge="1">
          <mxGeometry width="50" height="50" relative="1" as="geometry">
            <mxPoint x="70" y="265" as="sourcePoint" />
            <mxPoint x="350" y="655" as="targetPoint" />
          </mxGeometry>
        </mxCell>
        <mxCell id="J44joNyrXJEu9sqbxBoI-56" value="Edit Product" style="ellipse;whiteSpace=wrap;html=1;" parent="1" vertex="1">
          <mxGeometry x="340" y="20" width="130" height="50" as="geometry" />
        </mxCell>
        <mxCell id="J44joNyrXJEu9sqbxBoI-58" value="Track Order" style="ellipse;whiteSpace=wrap;html=1;" parent="1" vertex="1">
          <mxGeometry x="340" y="440" width="130" height="50" as="geometry" />
        </mxCell>
        <mxCell id="J44joNyrXJEu9sqbxBoI-59" value="" style="endArrow=classic;html=1;rounded=0;entryX=1;entryY=0.5;entryDx=0;entryDy=0;exitX=0.5;exitY=0.5;exitDx=0;exitDy=0;exitPerimeter=0;" parent="1" source="J44joNyrXJEu9sqbxBoI-2" target="J44joNyrXJEu9sqbxBoI-58" edge="1">
          <mxGeometry width="50" height="50" relative="1" as="geometry">
            <mxPoint x="760" y="265" as="sourcePoint" />
            <mxPoint x="480" y="655" as="targetPoint" />
          </mxGeometry>
        </mxCell>
        <mxCell id="J44joNyrXJEu9sqbxBoI-60" value="Send Message" style="ellipse;whiteSpace=wrap;html=1;" parent="1" vertex="1">
          <mxGeometry x="340" y="740" width="130" height="50" as="geometry" />
        </mxCell>
        <mxCell id="J44joNyrXJEu9sqbxBoI-62" value="" style="endArrow=classic;html=1;rounded=0;entryX=1;entryY=0.5;entryDx=0;entryDy=0;" parent="1" target="J44joNyrXJEu9sqbxBoI-60" edge="1">
          <mxGeometry width="50" height="50" relative="1" as="geometry">
            <mxPoint x="750" y="260" as="sourcePoint" />
            <mxPoint x="480" y="835" as="targetPoint" />
          </mxGeometry>
        </mxCell>
        <mxCell id="J44joNyrXJEu9sqbxBoI-63" value="Check Message" style="ellipse;whiteSpace=wrap;html=1;" parent="1" vertex="1">
          <mxGeometry x="335" y="80" width="130" height="50" as="geometry" />
        </mxCell>
      </root>
    </mxGraphModel>
  </diagram>
</mxfile>
